<?xml version="1.0" encoding="UTF-8"?>
<svg width="152px" height="80px" viewBox="0 0 152 80" version="1.1" xmlns="http://www.w3.org/2000/svg" xmlns:xlink="http://www.w3.org/1999/xlink">
    <!-- Generator: sketchtool 52.5 (67469) - http://www.bohemiancoding.com/sketch -->
    <title>62C9AC2D-5101-4E36-B8F8-7CF7B7E81557</title>
    <desc>Created with sketchtool.</desc>
    <defs>
        <polygon id="path-1" points="0.0480228571 0.0381490196 21.9614057 0.0381490196 21.9614057 15.9963608 0.0480228571 15.9963608"></polygon>
        <polygon id="path-3" points="0 0.000500065989 33.989461 0.000500065989 33.989461 35.98571 0 35.98571"></polygon>
    </defs>
    <g id="Page-1" stroke="none" stroke-width="1" fill="none" fill-rule="evenodd">
        <g id="Boys" transform="translate(-59.000000, -36.000000)">
            <g id="Group-32" transform="translate(59.000000, 36.000000)">
                <path d="M82.689789,4.57487715 L43.8381045,0.526886601 C42.2110569,0.290605615 40.8059271,1.64598498 41.0220391,3.24327106 L41.9129223,12.4375414 C42.0681351,13.584345 43.0289968,14.4638958 44.2076382,14.5378773 L67.2497287,15.3285657 C73.0308959,16.3098032 75.1310554,19.4803601 75.7746357,20.8529797 L76.0322532,21.5 C76.0322532,21.5 77.2986611,17.8495011 79.97409,16.3655162 C80.8543498,16.0894316 81.7044688,15.9111017 81.7044688,15.9111017 L81.6929807,15.894285 C82.6762627,15.6191078 83.4510297,14.8147483 83.6227952,13.7748942 L84.9648022,7.62021604 C85.2059287,6.16145619 84.1821913,4.79137731 82.689789,4.57487715" id="Fill-1" fill="#72838C"></path>
                <path d="M122.606665,17.5161999 C121.062763,17.4470952 119.47232,17.5984644 117.832052,17.9820951 C115.700533,18.4915237 113.929133,19.4287401 112.517169,20.7961768 C110.839098,22.4332339 110,24.4312194 110,26.7904452 C110,29.042958 110.919351,30.6650466 112.757061,31.6567734 C113.796327,32.2204005 114.781678,32.5 115.714105,32.5 C116.459873,32.4752396 117.13927,32.2725409 117.752046,31.8967063 C117.646694,31.0657663 117.712632,30.2620816 117.952587,29.485652 C118.244598,28.4397266 118.805256,27.5668748 119.63072,26.8694042 C120.551558,26.1248451 122.021156,25.5349607 123,25.2812442 C122.930158,24.9493173 122.676631,19.5836643 122.606665,17.5161999" id="Fill-3" fill="#72838C"></path>
                <g id="Group-7" transform="translate(130.000000, 15.500000)">
                    <mask id="mask-2" fill="white">
                        <use xlink:href="#path-1"></use>
                    </mask>
                    <g id="Clip-6"></g>
                    <polygon id="Fill-5" fill="#ABAE36" mask="url(#mask-2)" points="20.4515771 0.604611765 19.5867257 0.0381490196 20.3115314 6.2617098 0.0480228571 15.9963608 21.9614686 8.5017098"></polygon>
                </g>
                <polygon id="Fill-8" fill="#ABAE36" points="133 4.04880936 132.107055 3.5 124 5.20275356 125.887959 27.5 126.801265 5.80175815"></polygon>
                <path d="M144.819988,18.4375232 L131.648661,9.94631519 L136.938997,7.5 L140.970002,10.0985603 L145,12.6964401 L144.819988,18.4375232 Z M131.509274,10.3758927 L131.337953,10.9115654 L126,32.5 L144.042117,19.1009433 L144.538569,18.6790368 L138.369207,15.9350982 L131.446351,24.3493485 L131.447548,24.3479875 L131.446351,24.3493485 L136.622117,14.8411726 L131.509274,10.3758927 Z" id="Fill-10" fill="#ABAE36"></path>
                <path d="M56.2750047,68.5027756 C59.1075431,71.7158228 62.9773195,72.3119786 67.8018291,70.3159975 C69.2194951,69.7017287 70.7913687,68.7217605 72.5133524,67.3866587 C73.1464475,66.8808862 73.7888545,66.3342993 74.4415049,65.7457508 C74.9613654,65.2909963 75.4529794,64.8304456 75.9184576,64.3676007 C77.6060489,65.1362517 79.5662969,66.184566 81.7997604,67.5130264 C83.4609675,68.5143074 85.4483446,69.771886 87.7630712,71.2861848 L93.1863453,74.8767652 C95.0560802,76.1144196 96.4590953,76.9815445 97.3960735,77.4786832 C100.992262,79.3635115 104.498061,79.9276679 107.891558,79.181658 C111.194106,78.4689757 113.654846,76.690289 115.284578,73.8724049 C116.582926,71.6552049 117.140469,69.5233167 116.970121,67.4697969 C116.756192,65.1322669 115.597339,62.9205008 113.494927,60.8201893 C111.699378,58.9743038 109.590385,57.8778092 107.155161,57.5243058 C104.643391,57.1432104 102.410797,57.6672166 100.452598,59.1122637 C98.8956235,60.2456482 97.8130049,61.6148022 97.2094601,63.2220805 C96.6564486,64.6575882 96.6341618,65.8758618 97.1468831,66.8698977 C97.701757,68.0434928 98.6035977,68.8101515 99.8494254,69.1678812 C101.252254,69.5727649 102.470705,69.1820093 103.504404,68.0033425 L103.604974,67.7955272 C102.79824,67.6714539 102.662409,67.058936 103.199093,65.9603283 C103.764893,64.8347927 104.771525,64.1984865 106.216445,64.0499004 C108.309669,63.8349003 110.002847,64.634464 111.313052,66.4511878 C112.642254,68.3201975 112.69974,70.0721979 111.471419,71.7169699 C109.125838,74.8887197 105.559014,75.1064971 100.792612,72.3171106 C99.793429,71.7166076 98.3416188,70.7933328 96.4374914,69.5450522 L91.2385134,66.1334876 C89.1017711,64.7700693 87.2144674,63.6107833 85.5788374,62.6547845 C83.4898348,61.4462919 80.823982,60.1253181 79.8555912,59.590082 C78.8865795,59.0551477 76.1099133,57.5341471 76.6332504,57.8143537 C75.3185756,57.1111506 73.71113,56.4941648 71.751689,56.0564968 C70.1211496,55.6877182 68.717762,55.501095 67.5425817,55.5001893 C65.2852794,55.4888989 63.1808809,55.9825962 61.2245439,56.9888281 C59.5489963,57.8793186 58.1498301,59.0533364 57.0306462,60.5148662 C54.6111281,63.5587993 54.3467901,66.2328066 56.2750047,68.5027756 M62.0510812,65.0104878 C62.2225471,64.2287955 62.8719692,63.5472674 63.9959333,62.9678358 C65.0331712,62.50004 66.1857543,62.2406633 67.4526894,62.1898868 C69.190069,62.1105523 70.8191806,62.4516182 72.3459839,63.2087977 L71.5473206,64.0395157 C71.1868203,64.3932606 70.8097444,64.7334208 70.413672,65.0586681 C69.4113854,65.9200572 68.5767776,66.5031115 67.9152498,66.8081327 C65.6968098,67.819557 63.8810227,67.7214455 62.4860159,66.5066133 C62.0549302,66.1721888 61.9104072,65.674386 62.0510812,65.0104878" id="Fill-12" fill="#72838C"></path>
                <g id="Group-16" transform="translate(0.000000, 17.500000)">
                    <mask id="mask-4" fill="white">
                        <use xlink:href="#path-3"></use>
                    </mask>
                    <g id="Clip-15"></g>
                    <path d="M24.4559628,1.39143673 C27.3053331,2.70727347 29.5290182,4.69523265 31.1237338,7.35317143 C33.0854547,10.6959673 34.0392794,14.5919265 33.9874583,19.0389061 C33.9090576,23.8575184 32.6274583,27.9378857 30.143512,31.2779265 C28.9400701,32.9117633 27.2268107,34.0306408 25.0045245,34.6352327 C22.9127034,35.2131306 21.0436766,35.1741918 19.3965925,34.516151 C15.9965317,33.2807633 14.0093868,30.7538449 13.4341846,26.9353347 L13.0423027,26.8575796 C12.9640844,27.0688041 12.8710862,27.3043959 12.7675657,27.5688857 C12.7144673,27.7535388 12.6358841,28.0010694 12.5321202,28.3190694 C12.5059664,28.3190694 12.4792651,28.3700082 12.4539628,28.4768449 L12.0226068,29.7391714 C11.6040236,30.846049 11.1991256,31.7393143 10.8070004,32.4237429 C9.78700036,34.2662327 8.33497531,35.3974776 6.45281073,35.8196816 C4.28137245,36.2931306 2.49074633,35.7541714 1.07892522,34.2007224 C-0.359657961,32.4893143 -0.359657961,30.7657837 1.07892522,29.0278041 L1.15738676,28.7922735 C3.01400572,29.6080286 5.04098962,28.345702 7.23651377,25.000702 C8.64888229,22.9229265 10.2569789,21.5148857 12.0609252,20.7769469 C13.9443063,20.0413347 15.5779485,20.1993551 16.9647714,21.2503959 C16.3365925,22.7262735 16.4412687,24.1852531 17.2784351,25.6341306 C18.1935156,27.2121918 19.6437159,27.831049 21.6326247,27.4886204 C23.6194047,27.1732531 25.1882705,25.7775796 26.3384315,23.3038653 C27.4631077,20.8305184 27.8418519,18.0001714 27.4767928,14.8152122 C27.1363671,11.8683551 26.0117517,9.84157959 24.1031292,8.73464082 C21.1221381,6.99653878 18.3632723,7.15664082 15.8264708,9.20772245 C15.0160665,9.89239592 14.4663492,10.7491714 14.1794476,11.7759673 C13.9443063,12.5382122 13.8792258,13.3273347 13.9829896,14.1427837 C13.3812687,14.5117224 12.7144673,14.7110082 11.9824637,14.7350082 C11.0673224,14.7350082 10.1003599,14.4608449 9.07999499,13.9072531 C7.27629195,12.9340898 6.37459249,11.341702 6.37459249,9.13021224 C6.37459249,6.81421224 7.1980737,4.85319184 8.84515778,3.24598776 C10.2305209,1.90345714 11.9691435,0.983497959 14.061147,0.483477551 C17.7751757,-0.385236735 21.239283,-0.0817469388 24.4559628,1.39143673" id="Fill-14" fill="#72838C" mask="url(#mask-4)"></path>
                </g>
                <path d="M131.555793,32.5639149 C131.668046,35.2219663 131.295575,38.3628319 130.346814,40.5017356 C129.195878,43.0371066 127.626535,44.4679789 125.638847,44.7912775 C123.649942,45.1421242 122.199058,44.5075754 121.284003,42.8901413 C120.446522,41.4051141 120.341935,39.9097327 120.970183,38.3967808 C119.582696,37.3194536 117.948557,37.1578043 116.064908,37.9117702 C114.260352,38.6684344 112.651219,40.1109158 111.238908,42.2409086 C109.042473,45.6693669 107.015238,46.9631887 105.158055,46.1270804 L105.079265,46.3684247 C103.640245,48.14983 103.640245,49.9163002 105.079265,51.670471 C106.49182,53.2629298 108.282686,53.8150223 110.455393,53.3298235 C112.33746,52.8970226 113.789866,51.7376157 114.810176,49.8491555 C115.20242,49.1475876 115.607441,48.2317841 116.026212,47.0972271 L116.45776,45.8040328 C116.48307,45.6940285 116.510084,45.6424463 116.53655,45.6424463 C116.639737,45.3163866 116.718527,45.0623663 116.771459,44.8731689 C116.875558,44.6020173 116.968037,44.3606101 117.046279,44.1441156 L117.438158,44.2238107 C118.0139,48.1372795 120.001649,50.7275587 123.4025,51.9937696 C125.050085,52.6682286 126.920045,52.7078879 129.01238,52.1158223 C131.235281,51.4961458 132.949122,50.3493521 134.153234,48.6746881 C136.637266,45.2513755 137.919863,41.0692023 137.998105,36.1303022 C138.020495,34.1441371 137.844237,32.2694196 137.481136,30.5 C135.605639,31.0898693 131.597105,32.5488544 131.555793,32.5639149" id="Fill-17" fill="#72838C"></path>
                <path d="M37.1661703,40.9415807 C38.3370977,37.0261166 38.9224101,33.4127892 38.9224101,30.1025838 C38.9224101,28.6206541 38.7135904,27.3364957 38.2974032,26.2501084 C37.7514827,24.8758692 36.8925444,24.0945743 35.7219196,23.9091176 L35.6438618,23.9091176 C35.6438618,22.7715635 35.8789428,21.6998922 36.346866,20.6916406 C36.9191688,19.368322 37.7766548,18.4943603 38.9224101,18.0720953 C42.3038253,16.8538195 44.7101837,17.5812999 46.1410617,20.2543519 C46.713425,21.3408007 47,22.7567861 47,24.5047095 C47,25.8277819 46.8177441,27.6148655 46.4531719,29.8656524 C46.1665969,31.4523787 45.736795,33.2662464 45.1658839,35.3046078 C44.4880518,37.6873449 43.708442,39.9505079 42.8243921,42.0939738 C41.783319,44.6084763 40.6653378,46.7542819 39.4680886,48.5264034 C38.0897937,50.5917952 36.6589157,52.0857931 35.1762412,53.0132614 C34.290739,53.5700626 33.5243809,53.6480751 32.8743229,53.2528405 C32.1449968,52.8011437 31.8725812,51.9151138 32.0547161,50.5917952 C34.1096934,48.5801563 35.8130475,45.3626792 37.1661703,40.9415807" id="Fill-19" fill="#72838C"></path>
                <path d="M59.1099215,50.9379711 C58.3259188,49.3874139 58.3532283,47.957677 59.1909711,46.6419768 L59.3526937,46.5645467 C61.4037321,46.7484966 63.3737838,45.9465116 65.2631625,44.1584696 C66.8014727,42.7141878 68.0571452,40.8752998 69.0277315,38.6415611 C69.7571152,37.0395469 70.1342376,35.2804112 70.1615471,33.3617709 C70.1615471,31.1005925 69.5954555,29.2886553 68.4615771,27.9219869 C65.7621418,24.6385726 62.4155025,24.1785756 58.4217219,26.543157 C55.9376236,27.9632381 54.8584271,29.7877646 55.1821232,32.0218088 C53.5889429,32.8626616 51.9300313,32.6661224 50.202689,31.4306023 C48.3667365,30.0902736 47.6787252,28.2128845 48.1377761,25.7942181 C48.8122896,22.0365064 51.7133131,19.7007703 56.8422276,18.7799207 C59.2443973,18.3608082 61.6188809,18.4116542 63.9675616,18.937042 C66.5587006,19.5165148 68.7715244,20.6191143 70.6071002,22.2470404 C74.1154621,25.3485826 75.911549,29.4071533 75.9925358,34.425258 C76.0993254,39.365566 75.0602456,43.6858833 72.8747941,47.3910379 C70.5264273,51.38599 67.503233,53.4214172 63.8055252,53.4993973 C61.5382079,53.5259814 59.9725882,52.6731505 59.1099215,50.9379711" id="Fill-21" fill="#72838C"></path>
                <path d="M77.066905,62.165095 C77.066905,62.165095 82.9621534,53.7922477 82.6084337,48.4531854 C82.2546537,43.1138132 83.7874593,41.6577898 85.6736232,41.7793421 C87.5601484,41.9004604 89.5647208,36.8040067 86.1451491,35.7120201 C82.7258785,34.6197857 76.0056254,37.6539425 77.066905,46.997224 C78.1281847,56.3405056 76.5951382,57.4324301 74.7088539,60.2235445 C72.8223286,63.014349 75.2983667,63.5 75.2983667,63.5 L77.066905,62.165095 Z" id="Fill-23" fill="#72838C"></path>
                <path d="M102.01412,46.7702228 C99.7760228,50.7717968 96.9120073,52.9973541 93.4212057,53.4498101 C91.022523,53.7423495 89.2376111,52.7560525 88.0654782,50.4910434 C86.9716238,48.3562999 86.9322676,46.5561529 87.9449305,45.0904785 L88.2642425,45.0089694 C90.4487902,45.2230393 92.3954655,44.6769782 94.1007354,43.3710962 C95.5648478,42.2495092 96.7644991,40.663184 97.6966521,38.6096393 C98.3367016,37.062704 98.6563235,35.3556659 98.6563235,33.4891456 C98.6563235,31.302792 98.1634724,29.5418488 97.178018,28.2086732 C94.6201752,24.822263 91.4354222,24.2762019 87.6253705,26.5683808 C86.6932175,27.1289572 85.9467513,28.0094908 85.3870256,29.2098576 C84.8538266,30.3828686 84.7735028,31.2755603 85.1469838,31.8879949 C83.4417759,33.0095199 81.5631528,32.9161629 79.5117343,31.6102189 C77.3268766,30.2231381 76.567457,28.154768 77.2332894,25.4098231 C78.1130089,21.3026718 80.9770244,18.7694395 85.8265135,17.8080171 C88.1451822,17.3280193 90.5696479,17.4095904 93.1012739,18.0487604 C95.8193306,18.7424559 98.0564979,19.9674491 99.8159368,21.7280821 C103.038992,24.9550099 104.757897,28.9171941 104.971784,33.6095482 C105.18406,38.4889265 104.198606,42.8768312 102.01412,46.7702228" id="Fill-25" fill="#72838C"></path>
                <path d="M77.0788699,11.5749685 L77.9406517,13.5 L76.9287137,13.3847603 L75.9268724,11.1472898 C75.7693901,11.3154724 75.6508781,11.7252701 75.5691203,12.3750287 L75.462675,13.2177231 L74.6240416,13.1222097 L74.7468014,12.2247907 C74.8291134,11.6151211 74.9396219,11.1837516 75.0774651,10.9292188 C75.2152468,10.6746224 75.3805478,10.4839137 75.5744149,10.3570291 L74.9040375,8.86050362 L75.916037,8.97580697 L76.7447586,10.826833 C76.9157236,10.693267 77.0368828,10.3554383 77.1090981,9.81627424 L77.1992288,9.12197243 L78,9.21322243 L77.9284619,9.72623326 C77.8449187,10.3234308 77.7363187,10.7425827 77.6024156,10.9851524 C77.4685741,11.2277222 77.2944077,11.4244124 77.0788699,11.5749685 Z M74.2167915,8.78223479 L74.056785,11.1631345 L73.1677301,11.0618941 L73.3277365,8.68099437 L74.2167915,8.78223479 Z M71.3014596,10.1542938 L71.7492808,8.50116696 L72.6950983,8.60889796 L71.8752421,10.2197087 L71.3014596,10.1542938 Z M69.8638022,9.99056556 L70.3116234,8.33737511 L71.2574409,8.44510611 L70.4375847,10.0559169 L69.8638022,9.99056556 Z M67.0189619,10.0304636 L66.1550869,9.93208666 L66.0067161,12.1405404 L66.8705296,12.2389809 L67.0189619,10.0304636 Z M69.0585368,12.4882322 L68.1946618,12.3897916 L68.3292421,10.3865549 C68.3642724,9.86520817 68.2897176,9.49409936 68.1045312,9.27170134 C67.9202682,9.05083051 67.62956,8.9170099 67.2312983,8.87163943 C66.9338796,8.83778657 66.608018,8.83377768 66.2526053,8.85942186 L66.2502043,7.94921261 C66.5905952,7.91071453 66.9883027,7.91739601 67.443327,7.96925707 C67.9383066,8.02563608 68.3156363,8.16238382 68.5742693,8.37937302 C68.8330255,8.59496229 69.0107626,8.84962235 69.1075422,9.14195325 C69.2053684,9.43574772 69.2373205,9.82677372 69.2041987,10.3194219 L69.0585368,12.4882322 Z M63.1555347,10.8395597 L63.748279,10.9070745 L63.6832052,11.8758899 L60.4359168,11.5059901 L60.5009906,10.5371747 L62.2917212,10.7411191 L62.3671379,9.61913859 C62.3983512,9.15391629 62.3437434,8.81678762 62.2033144,8.60635263 C62.0627623,8.39591765 61.8054837,8.27011482 61.4303088,8.22735331 C61.2095996,8.2022182 60.9597703,8.20132734 60.681806,8.22487162 L60.6782968,7.33095247 C61.0036659,7.27979138 61.3260799,7.27240993 61.6444922,7.30868085 C62.2403763,7.37651384 62.6678196,7.58656702 62.9270067,7.9373132 C63.1860707,8.28952295 63.2916541,8.81443319 63.2447418,9.51229846 L63.1555347,10.8395597 Z M58.3398256,6.97358844 L58.1798191,9.35448813 L57.2908257,9.25318408 L57.4507707,6.87234802 L58.3398256,6.97358844 Z M60.0612344,7.16970595 L59.9012279,9.55060564 L59.012173,9.44930159 L59.1721795,7.0684019 L60.0612344,7.16970595 Z M54.0558503,8.95226269 L54.9176321,10.8772942 L53.9056326,10.7620544 L52.9038528,8.52452034 C52.746432,8.69276651 52.627797,9.1025643 52.5460392,9.75225924 L52.4396555,10.5950809 L51.601022,10.4995039 L51.7237819,9.6020849 C51.8060938,8.99241524 51.9166023,8.56098216 52.054384,8.30644938 C52.1922272,8.05191659 52.3575282,7.86114427 52.5513953,7.7343233 L51.8810179,6.23779778 L52.8930175,6.35310114 L53.721739,8.20406356 C53.892704,8.07049748 54.0138632,7.73273247 54.0860786,7.1935684 L54.1761476,6.49926659 L54.9769804,6.59045296 L54.9054423,7.10352742 C54.8218991,7.70066134 54.7132375,8.11987684 54.579396,8.36251022 C54.4455545,8.60507997 54.2713881,8.80170655 54.0558503,8.95226269 Z M49.4734712,5.9635387 L49.3134647,8.3444384 L48.4244098,8.24319798 L48.5844163,5.86229829 L49.4734712,5.9635387 Z M51.1948185,6.15965622 L51.034812,8.54055591 L50.1457571,8.43925186 L50.3057636,6.05835217 L51.1948185,6.15965622 Z M47.3843368,11.6654549 L46.5205234,11.5670144 L46.7708452,7.84109981 C46.8036592,7.35258776 46.7335371,7.00954119 46.5605404,6.81056019 C46.3875438,6.61164281 46.1255863,6.4922033 45.7755913,6.45230529 C45.5833249,6.43041547 45.326231,6.42596115 45.0035092,6.43881505 L45,5.54495954 C45.299081,5.49074405 45.6403954,5.48552613 46.0260978,5.52949667 C46.6135476,5.59637516 47.0430841,5.80661924 47.3127987,6.15863809 C47.5834984,6.51072056 47.6954229,7.0363944 47.6485107,7.73425967 L47.3843368,11.6654549 Z" id="Fill-27" fill="#FEFEFE"></path>
            </g>
        </g>
    </g>
</svg>