<?xml version="1.0" encoding="UTF-8"?>
<svg width="12px" height="6px" viewBox="0 0 12 6" version="1.1" xmlns="http://www.w3.org/2000/svg" xmlns:xlink="http://www.w3.org/1999/xlink">
    <!-- Generator: sketchtool 52.5 (67469) - http://www.bohemiancoding.com/sketch -->
    <title>3205D370-68C8-4F3B-A92A-B0313999AB9E</title>
    <desc>Created with sketchtool.</desc>
    <g id="Page-1" stroke="none" stroke-width="1" fill="none" fill-rule="evenodd">
        <g id="Shiduchim-Ideas" transform="translate(-1390.000000, -35.000000)" fill="#35374F">
            <path d="M1395.89232,35.0045405 C1395.65637,35.0253839 1395.43296,35.114588 1395.25353,35.2579858 L1390.4302,39.0996821 C1390.18706,39.2805961 1390.03363,39.5448707 1390.00492,39.832507 C1389.97621,40.1201434 1390.074,40.406926 1390.27588,40.6262015 C1390.47864,40.846288 1390.76753,40.9796802 1391.07797,40.998035 C1391.38841,41.0155425 1391.69345,40.9154983 1391.92314,40.7204084 L1396,37.4722542 L1400.07686,40.7204084 C1400.30655,40.915494 1400.61159,41.0155361 1400.92203,40.998035 C1401.23247,40.9805275 1401.52136,40.8463008 1401.72412,40.6270339 C1401.92599,40.4069473 1402.02379,40.1209757 1401.99508,39.832507 C1401.96637,39.5448707 1401.81295,39.2806047 1401.5698,39.0996821 L1396.74647,35.2579858 C1396.51052,35.0695698 1396.20187,34.9778621 1395.89232,35.0045405 Z" id="arrow" transform="translate(1396.000000, 38.000000) scale(1, -1) translate(-1396.000000, -38.000000) "></path>
        </g>
    </g>
</svg>