<?xml version="1.0" encoding="UTF-8"?>
<svg width="16px" height="19px" viewBox="0 0 16 19" version="1.1" xmlns="http://www.w3.org/2000/svg" xmlns:xlink="http://www.w3.org/1999/xlink">
    <!-- Generator: sketchtool 52.5 (67469) - http://www.bohemiancoding.com/sketch -->
    <title>CA020394-1D7E-4DE4-A09F-343B08E46503</title>
    <desc>Created with sketchtool.</desc>
    <g id="Page-1" stroke="none" stroke-width="1" fill="none" fill-rule="evenodd">
        <g id="Create-Idea" transform="translate(-1203.000000, -26.000000)" fill="#BDC2D3">
            <g id="notification" transform="translate(1203.000000, 26.000000)">
                <path d="M8.00138146,4.50728405e-06 C9.82311129,4.50728405e-06 10.7797986,2.11103606 9.51056553,3.38745383 C12.4152849,4.05034009 14.5705643,6.56553981 14.5705643,9.51983914 C14.5705643,11.7673287 14.3034455,13.5033768 15.8907602,15.3405458 C16.1033713,15.5843898 15.9925231,15.9655708 15.6717874,16.0615309 C12.2355752,17.0703963 7.49982193,17.2015583 3.87543556,16.7596416 C3.06858974,16.6610448 0.487371636,16.2358501 0.169173679,15.9743826 C-0.58677907,15.3555099 1.43575506,14.796494 1.43575506,11.8747824 L1.43484559,9.51905036 C1.43484559,6.56475104 3.58912485,4.04946117 6.49112278,3.38666506 C5.70790921,2.59613251 5.72607534,1.35399263 6.52746666,0.586289479 L6.52746666,0.583648211 C6.90544304,0.223583825 7.4278878,0 8.00120236,0 L8.00138146,4.50728405e-06 Z" id="Fill-1"></path>
                <path d="M9.99996897,17.4232901 C9.99996897,18.8378409 7.83842688,19.5124595 6.59400295,18.5484798 C5.90311314,18.0102665 5.73646076,17 6.51723684,17 L9.48284755,17 C9.76971201,17 10,17.1909758 10,17.4232901 L9.99996897,17.4232901 Z" id="Fill-2"></path>
            </g>
        </g>
    </g>
</svg>