<?xml version="1.0" encoding="UTF-8"?>
<svg width="27px" height="27px" viewBox="0 0 27 27" version="1.1" xmlns="http://www.w3.org/2000/svg" xmlns:xlink="http://www.w3.org/1999/xlink">
    <!-- Generator: sketchtool 52.5 (67469) - http://www.bohemiancoding.com/sketch -->
    <title>1697CBED-727F-4247-AC2B-5990DFEA82CE</title>
    <desc>Created with sketchtool.</desc>
    <g id="Page-1" stroke="none" stroke-width="1" fill="none" fill-rule="evenodd">
        <g id="Boys" transform="translate(-1065.000000, -154.000000)">
            <g id="plus" transform="translate(1065.000000, 154.000000)">
                <circle id="Oval" fill="#ABAE36" cx="13.5" cy="13.5" r="13.5"></circle>
                <path d="M14,8 C13.5578,8 13.2,8.357812 13.2,8.8 L13.2,13.2 L8.8,13.2 C8.3578,13.2 8,13.557812 8,14 C8,14.442188 8.357812,14.8 8.8,14.8 L13.2,14.8 L13.2,19.2 C13.2,19.6422 13.557812,20 14,20 C14.442188,20 14.8,19.642188 14.8,19.2 L14.8,14.8 L19.2,14.8 C19.6422,14.8 20,14.442188 20,14 C20,13.557812 19.642188,13.2 19.2,13.2 L14.8,13.2 L14.8,8.8 C14.8,8.3578 14.442188,8 14,8 Z" id="Fill-1" fill="#FFFFFF"></path>
            </g>
        </g>
    </g>
</svg>